<svg width="17" height="17" viewBox="0 0 17 17" fill="none" xmlns="http://www.w3.org/2000/svg">
<path fill-rule="evenodd" clip-rule="evenodd" d="M2.63614 7.40772C2.63614 9.94236 4.69087 11.9971 7.2255 11.9971C9.76014 11.9971 11.8149 9.94236 11.8149 7.40772C11.8149 4.87309 9.76014 2.81836 7.2255 2.81836C4.69087 2.81836 2.63614 4.87309 2.63614 7.40772ZM0.636143 7.40772C0.636143 11.0469 3.5863 13.9971 7.2255 13.9971C8.6843 13.9971 10.0324 13.523 11.1241 12.7206L14.3488 15.9453C14.7393 16.3358 15.3725 16.3358 15.763 15.9453C16.1535 15.5548 16.1535 14.9216 15.763 14.5311L12.5383 11.3064C13.3408 10.2147 13.8149 8.86655 13.8149 7.40772C13.8149 3.76852 10.8647 0.818359 7.2255 0.818359C3.5863 0.818359 0.636143 3.76852 0.636143 7.40772Z" fill="white"/>
</svg>
